/* XPM */
static char * stick_inactive_xpm[] = {
"18 18 12 1",
" 	c None",
".	c #292F34",
"+	c #B0B2B4",
"@	c #2C3237",
"#	c #F9F9F9",
"$	c #7F868D",
"%	c #7F868C",
"&	c #7E858B",
"*	c #7E858A",
"=	c #EAEBED",
"-	c #7D848A",
";	c #7D8389",
"..................",
"..................",
"..................",
"...........++@....",
"..........+##+@...",
".........+####+...",
".....@..+#####+...",
"....@+$+#####+....",
".....%######+.....",
"......&####+......",
"......&###+.......",
".....*#**=*.......",
"....-#-..-+@......",
"...@#;....@.......",
"....@.............",
"..................",
"..................",
".................."};
