/* XPM */
static char * close_prelight_xpm[] = {
"18 18 4 1",
" 	c None",
".	c #292F34",
"+	c #F9F9F9",
"@	c #595E62",
"..................",
"..................",
"..................",
"..................",
"..................",
".....+@....@+.....",
".....@+@..@+@.....",
"......@+@@+@......",
".......@++@.......",
".......@++@.......",
"......@+@@+@......",
".....@+@..@+@.....",
".....+@....@+.....",
"..................",
"..................",
"..................",
"..................",
".................."};
