/* XPM */
static char * maximize_pressed_xpm[] = {
"18 18 5 1",
" 	c None",
".	c #292F34",
"+	c #595E62",
"@	c #F9F9F9",
"#	c #B0B2B4",
"..................",
"..................",
"..................",
"..................",
"..................",
"........++........",
".......+@@+.......",
"......+@++@+......",
".....+@+..+@+.....",
"....+@+....+@+....",
"...+@+......+@+...",
"...#+........+#...",
"..................",
"..................",
"..................",
"..................",
"..................",
".................."};
