/* XPM */
static char * maximize_toggled_active_xpm[] = {
"18 18 4 1",
" 	c None",
".	c #292F34",
"+	c #595E62",
"@	c #F9F9F9",
"..................",
"..................",
"..................",
"..................",
"........++........",
".......+@@+.......",
"......+@++@+......",
".....+@+..+@+.....",
"....+@+....+@+....",
"....+@+....+@+....",
".....+@+..+@+.....",
"......+@++@+......",
".......+@@+.......",
"........++........",
"..................",
"..................",
"..................",
".................."};
