/* XPM */
static char * shade_active_xpm[] = {
"18 18 4 1",
" 	c #292F34",
".	c #595E62",
"+	c #B0B2B4",
"@	c #F9F9F9",
"                  ",
"                  ",
"                  ",
"                  ",
"   .++++++++++.   ",
"   .++++++++++.   ",
"                  ",
"        ..        ",
"       .@@.       ",
"      .@..@.      ",
"     .@.  .@.     ",
"    .@.    .@.    ",
"   .@.      .@.   ",
"   +.        .+   ",
"                  ",
"                  ",
"                  ",
"                  "};
