/* XPM */
static char * stick_toggled_pressed_xpm[] = {
"18 18 18 1",
" 	c None",
".	c #292F34",
"+	c #90969B",
"@	c #CCCFD2",
"#	c #F9F9F9",
"$	c #464D54",
"%	c #C7CACD",
"&	c #31373D",
"*	c #C8CBCD",
"=	c #8F959A",
"-	c #CCCFD1",
";	c #6B7278",
">	c #CBCED1",
",	c #8D9397",
"'	c #C6C9CC",
")	c #5B636A",
"!	c #8C9296",
"~	c #CBCED0",
"..................",
"..................",
"..................",
"......+@##@+......",
"....$%######%&....",
"....*########%....",
"...=##########=...",
"...-##########-...",
"...#####;;#####...",
"...#####;;#####...",
"...>##########>...",
"...,##########,...",
"....'########'....",
"....)'######')....",
"......!~##~!......",
"..................",
"..................",
".................."};
