/* XPM */
static char * maximize_toggled_inactive_xpm[] = {
"18 18 4 1",
" 	c None",
".	c #EDEDED",
"+	c #B2B4B5",
"@	c #242B31",
"..................",
"..................",
"..................",
"........++........",
".......+@@+.......",
"......+@++@+......",
".....+@+..+@+.....",
"....+@+....+@+....",
"...+@+......+@+...",
"...+@+......+@+...",
"....+@+....+@+....",
".....+@+..+@+.....",
"......+@++@+......",
".......+@@+.......",
"........++........",
"..................",
"..................",
".................."};
