/* XPM */
static char * close_pressed_xpm[] = {
"18 18 5 1",
" 	c None",
".	c #EDEDED",
"+	c #BFC0C1",
"@	c #B2B4B5",
"#	c #2B3237",
"..................",
"..................",
"..................",
"..................",
"....+@......@+....",
"....@#@....@#@....",
".....@#@..@#@.....",
"......@#@@#@......",
".......@##@.......",
".......@##@.......",
"......@#@@#@......",
".....@#@..@#@.....",
"....@#@....@#@....",
"....+@......@+....",
"..................",
"..................",
"..................",
".................."};
